<svg width="138" height="47" viewBox="0 0 138 47" fill="none" xmlns="http://www.w3.org/2000/svg">
<path d="M11.34 31.36C11.34 30.32 11.524 29.304 11.892 28.312C12.26 27.304 12.796 26.392 13.5 25.576C14.22 24.744 15.092 24.088 16.116 23.608C17.14 23.112 18.3 22.864 19.596 22.864C21.132 22.864 22.46 23.216 23.58 23.92C24.7 24.608 25.532 25.496 26.076 26.584L23.964 28C23.644 27.312 23.236 26.768 22.74 26.368C22.26 25.968 21.732 25.688 21.156 25.528C20.596 25.368 20.044 25.288 19.5 25.288C18.604 25.288 17.82 25.472 17.148 25.84C16.476 26.192 15.908 26.664 15.444 27.256C14.996 27.848 14.652 28.512 14.412 29.248C14.188 29.984 14.076 30.72 14.076 31.456C14.076 32.272 14.212 33.064 14.484 33.832C14.756 34.584 15.132 35.256 15.612 35.848C16.108 36.424 16.692 36.88 17.364 37.216C18.036 37.552 18.772 37.72 19.572 37.72C20.116 37.72 20.684 37.624 21.276 37.432C21.868 37.24 22.412 36.944 22.908 36.544C23.42 36.128 23.82 35.584 24.108 34.912L26.34 36.184C25.988 37.032 25.436 37.752 24.684 38.344C23.948 38.936 23.116 39.384 22.188 39.688C21.276 39.992 20.372 40.144 19.476 40.144C18.276 40.144 17.18 39.896 16.188 39.4C15.196 38.888 14.34 38.216 13.62 37.384C12.9 36.536 12.34 35.592 11.94 34.552C11.54 33.496 11.34 32.432 11.34 31.36ZM27.5783 36.328C27.5783 35.528 27.8023 34.832 28.2503 34.24C28.7143 33.632 29.3463 33.168 30.1463 32.848C30.9463 32.512 31.8743 32.344 32.9303 32.344C33.4903 32.344 34.0583 32.384 34.6343 32.464C35.2263 32.544 35.7463 32.672 36.1943 32.848V32.056C36.1943 31.176 35.9303 30.488 35.4023 29.992C34.8743 29.496 34.1143 29.248 33.1223 29.248C32.4183 29.248 31.7543 29.376 31.1303 29.632C30.5063 29.872 29.8423 30.216 29.1383 30.664L28.2503 28.888C29.0823 28.328 29.9143 27.912 30.7463 27.64C31.5943 27.368 32.4823 27.232 33.4103 27.232C35.0903 27.232 36.4103 27.68 37.3703 28.576C38.3463 29.456 38.8343 30.712 38.8343 32.344V37.024C38.8343 37.328 38.8823 37.544 38.9783 37.672C39.0903 37.8 39.2743 37.872 39.5303 37.888V40C39.2903 40.048 39.0743 40.08 38.8823 40.096C38.6903 40.112 38.5303 40.12 38.4023 40.12C37.8423 40.12 37.4183 39.984 37.1303 39.712C36.8423 39.44 36.6743 39.12 36.6263 38.752L36.5543 38.032C36.0103 38.736 35.3143 39.28 34.4663 39.664C33.6183 40.048 32.7623 40.24 31.8983 40.24C31.0663 40.24 30.3223 40.072 29.6663 39.736C29.0103 39.384 28.4983 38.912 28.1303 38.32C27.7623 37.728 27.5783 37.064 27.5783 36.328ZM35.5703 37.096C35.7623 36.888 35.9143 36.68 36.0263 36.472C36.1383 36.264 36.1943 36.08 36.1943 35.92V34.48C35.7463 34.304 35.2743 34.176 34.7783 34.096C34.2823 34 33.7943 33.952 33.3143 33.952C32.3543 33.952 31.5703 34.144 30.9623 34.528C30.3703 34.912 30.0742 35.44 30.0742 36.112C30.0742 36.48 30.1703 36.832 30.3623 37.168C30.5703 37.504 30.8583 37.776 31.2263 37.984C31.6103 38.192 32.0823 38.296 32.6423 38.296C33.2183 38.296 33.7703 38.184 34.2983 37.96C34.8263 37.736 35.2503 37.448 35.5703 37.096ZM49.0931 29.728C48.0691 29.744 47.1571 29.976 46.3571 30.424C45.5731 30.872 45.0131 31.504 44.6771 32.32V40H42.0371V27.448H44.4851V30.256C44.9171 29.392 45.4851 28.704 46.1891 28.192C46.8931 27.664 47.6371 27.376 48.4211 27.328C48.5811 27.328 48.7091 27.328 48.8051 27.328C48.9171 27.328 49.0131 27.336 49.0931 27.352V29.728ZM56.4908 40.24C55.5148 40.24 54.6268 40.072 53.8268 39.736C53.0428 39.384 52.3628 38.912 51.7868 38.32C51.2108 37.712 50.7628 37.024 50.4428 36.256C50.1388 35.472 49.9868 34.64 49.9868 33.76C49.9868 32.576 50.2588 31.496 50.8027 30.52C51.3468 29.528 52.1068 28.736 53.0828 28.144C54.0588 27.536 55.2028 27.232 56.5148 27.232C57.8268 27.232 58.9548 27.536 59.8988 28.144C60.8588 28.736 61.6028 29.52 62.1308 30.496C62.6588 31.472 62.9228 32.52 62.9228 33.64C62.9228 33.832 62.9148 34.016 62.8988 34.192C62.8828 34.352 62.8668 34.488 62.8508 34.6H52.7948C52.8428 35.336 53.0428 35.984 53.3948 36.544C53.7628 37.088 54.2268 37.52 54.7868 37.84C55.3468 38.144 55.9468 38.296 56.5868 38.296C57.2908 38.296 57.9548 38.12 58.5788 37.768C59.2188 37.416 59.6508 36.952 59.8748 36.376L62.1308 37.024C61.8588 37.632 61.4428 38.184 60.8828 38.68C60.3388 39.16 59.6908 39.544 58.9388 39.832C58.1868 40.104 57.3708 40.24 56.4908 40.24ZM52.7228 32.848H60.3068C60.2588 32.128 60.0508 31.496 59.6828 30.952C59.3308 30.392 58.8748 29.96 58.3148 29.656C57.7708 29.336 57.1628 29.176 56.4908 29.176C55.8348 29.176 55.2268 29.336 54.6668 29.656C54.1228 29.96 53.6748 30.392 53.3228 30.952C52.9708 31.496 52.7708 32.128 52.7228 32.848ZM85.3339 22.96V40H82.6219V32.488H74.0299V40H71.3419V22.96H74.0299V30.088H82.6219V22.96H85.3339ZM94.2709 40.24C93.2789 40.24 92.3909 40.072 91.6069 39.736C90.8229 39.384 90.1429 38.904 89.5669 38.296C89.0069 37.688 88.5749 37 88.2709 36.232C87.9669 35.448 87.8149 34.616 87.8149 33.736C87.8149 32.856 87.9669 32.024 88.2709 31.24C88.5749 30.456 89.0069 29.768 89.5669 29.176C90.1429 28.568 90.8229 28.096 91.6069 27.76C92.4069 27.408 93.2949 27.232 94.2709 27.232C95.2469 27.232 96.1269 27.408 96.9109 27.76C97.7109 28.096 98.3909 28.568 98.9509 29.176C99.5269 29.768 99.9669 30.456 100.271 31.24C100.575 32.024 100.727 32.856 100.727 33.736C100.727 34.616 100.575 35.448 100.271 36.232C99.9669 37 99.5269 37.688 98.9509 38.296C98.3909 38.904 97.7109 39.384 96.9109 39.736C96.1269 40.072 95.2469 40.24 94.2709 40.24ZM90.5269 33.76C90.5269 34.56 90.6949 35.28 91.0309 35.92C91.3669 36.56 91.8149 37.064 92.3749 37.432C92.9349 37.8 93.5669 37.984 94.2709 37.984C94.9589 37.984 95.5829 37.8 96.1429 37.432C96.7189 37.048 97.1749 36.536 97.5109 35.896C97.8469 35.24 98.0149 34.52 98.0149 33.736C98.0149 32.936 97.8469 32.216 97.5109 31.576C97.1749 30.936 96.7189 30.432 96.1429 30.064C95.5829 29.68 94.9589 29.488 94.2709 29.488C93.5669 29.488 92.9349 29.68 92.3749 30.064C91.8149 30.448 91.3669 30.96 91.0309 31.6C90.6949 32.224 90.5269 32.944 90.5269 33.76ZM122.268 40H119.628V32.968C119.628 31.8 119.436 30.944 119.052 30.4C118.668 29.856 118.108 29.584 117.372 29.584C116.636 29.584 115.948 29.864 115.308 30.424C114.684 30.968 114.244 31.68 113.988 32.56V40H111.348V32.968C111.348 31.8 111.156 30.944 110.772 30.4C110.388 29.856 109.836 29.584 109.116 29.584C108.38 29.584 107.692 29.856 107.052 30.4C106.428 30.944 105.98 31.656 105.708 32.536V40H103.068V27.448H105.468V29.968C105.964 29.088 106.612 28.416 107.412 27.952C108.228 27.472 109.156 27.232 110.196 27.232C111.236 27.232 112.052 27.504 112.644 28.048C113.252 28.592 113.628 29.272 113.772 30.088C114.316 29.16 114.98 28.456 115.764 27.976C116.564 27.48 117.476 27.232 118.5 27.232C119.236 27.232 119.852 27.368 120.348 27.64C120.844 27.912 121.228 28.288 121.5 28.768C121.772 29.232 121.964 29.776 122.076 30.4C122.204 31.008 122.268 31.656 122.268 32.344V40ZM130.999 40.24C130.023 40.24 129.135 40.072 128.335 39.736C127.551 39.384 126.871 38.912 126.295 38.32C125.719 37.712 125.271 37.024 124.951 36.256C124.647 35.472 124.495 34.64 124.495 33.76C124.495 32.576 124.767 31.496 125.311 30.52C125.855 29.528 126.615 28.736 127.591 28.144C128.567 27.536 129.711 27.232 131.023 27.232C132.335 27.232 133.463 27.536 134.407 28.144C135.367 28.736 136.111 29.52 136.639 30.496C137.167 31.472 137.431 32.52 137.431 33.64C137.431 33.832 137.423 34.016 137.407 34.192C137.391 34.352 137.375 34.488 137.359 34.6H127.303C127.351 35.336 127.551 35.984 127.903 36.544C128.271 37.088 128.735 37.52 129.295 37.84C129.855 38.144 130.455 38.296 131.095 38.296C131.799 38.296 132.463 38.12 133.087 37.768C133.727 37.416 134.159 36.952 134.383 36.376L136.639 37.024C136.367 37.632 135.951 38.184 135.391 38.68C134.847 39.16 134.199 39.544 133.447 39.832C132.695 40.104 131.879 40.24 130.999 40.24ZM127.231 32.848H134.815C134.767 32.128 134.559 31.496 134.191 30.952C133.839 30.392 133.383 29.96 132.823 29.656C132.279 29.336 131.671 29.176 130.999 29.176C130.343 29.176 129.735 29.336 129.175 29.656C128.631 29.96 128.183 30.392 127.831 30.952C127.479 31.496 127.279 32.128 127.231 32.848Z" fill="#262E27"/>
<path d="M28.5 24H33L18 10.5L3 24H7.5L18 14.535L28.5 24ZM10.5 13.215V10.5H6V17.25L10.5 13.215Z" fill="url(#paint0_linear_7_2215)"/>
<defs>
<linearGradient id="paint0_linear_7_2215" x1="3" y1="10.5" x2="13.104" y2="32.9532" gradientUnits="userSpaceOnUse">
<stop stop-color="#028A0F"/>
<stop offset="1" stop-color="#90D296"/>
</linearGradient>
</defs>
</svg>
